<svg xmlns="http://www.w3.org/2000/svg" viewBox="0 0 1400 800" preserveAspectRatio="xMidYMid slice">
  <defs>
    <radialGradient id="aw-bg" cx="28%" cy="42%" r="60%">
      <stop offset="0%" stop-color="#28538F" stop-opacity="0.55"/>
      <stop offset="55%" stop-color="#28538F" stop-opacity="0.15"/>
      <stop offset="100%" stop-color="#28538F" stop-opacity="0"/>
    </radialGradient>
    <radialGradient id="aw-bg2" cx="72%" cy="58%" r="50%">
      <stop offset="0%" stop-color="#7940C9" stop-opacity="0.45"/>
      <stop offset="60%" stop-color="#7940C9" stop-opacity="0.08"/>
      <stop offset="100%" stop-color="#7940C9" stop-opacity="0"/>
    </radialGradient>
    <linearGradient id="aw-ring" x1="0" y1="0" x2="1" y2="1">
      <stop offset="0%" stop-color="#28538F" stop-opacity="0.55"/>
      <stop offset="100%" stop-color="#7940C9" stop-opacity="0.55"/>
    </linearGradient>
    <linearGradient id="aw-ring-soft" x1="0" y1="0" x2="1" y2="1">
      <stop offset="0%" stop-color="#28538F" stop-opacity="0.22"/>
      <stop offset="100%" stop-color="#7940C9" stop-opacity="0.22"/>
    </linearGradient>
    <radialGradient id="aw-dot" cx="50%" cy="50%" r="50%">
      <stop offset="0%" stop-color="#7940C9" stop-opacity="0.65"/>
      <stop offset="100%" stop-color="#7940C9" stop-opacity="0"/>
    </radialGradient>
    <filter id="aw-blur" x="-20%" y="-20%" width="140%" height="140%">
      <feGaussianBlur stdDeviation="48"/>
    </filter>
  </defs>
  <g filter="url(#aw-blur)">
    <circle cx="380" cy="380" r="380" fill="url(#aw-bg)"/>
    <circle cx="1050" cy="500" r="320" fill="url(#aw-bg2)"/>
  </g>
  <g fill="none" stroke="url(#aw-ring)" stroke-width="1">
    <circle cx="380" cy="380" r="80"/>
    <circle cx="380" cy="380" r="160" opacity="0.85"/>
  </g>
  <g fill="none" stroke="url(#aw-ring-soft)" stroke-width="0.8">
    <circle cx="380" cy="380" r="240"/>
    <circle cx="380" cy="380" r="330"/>
    <circle cx="380" cy="380" r="430"/>
    <circle cx="380" cy="380" r="540"/>
    <circle cx="380" cy="380" r="660"/>
  </g>
  <circle cx="380" cy="380" r="14" fill="#28538F" opacity="0.85"/>
  <circle cx="380" cy="380" r="32" fill="none" stroke="#28538F" stroke-width="1.2" opacity="0.6"/>
  <g>
    <circle cx="780" cy="180" r="42" fill="url(#aw-dot)"/>
    <circle cx="980" cy="320" r="28" fill="url(#aw-dot)"/>
    <circle cx="1180" cy="200" r="34" fill="url(#aw-dot)"/>
    <circle cx="900" cy="560" r="38" fill="url(#aw-dot)"/>
    <circle cx="1100" cy="640" r="30" fill="url(#aw-dot)"/>
    <circle cx="1260" cy="460" r="26" fill="url(#aw-dot)"/>
    <circle cx="720" cy="640" r="22" fill="url(#aw-dot)"/>
    <circle cx="1080" cy="120" r="20" fill="url(#aw-dot)"/>
    <circle cx="850" cy="420" r="16" fill="url(#aw-dot)"/>
  </g>
  <g fill="#7940C9" opacity="0.55">
    <circle cx="780" cy="180" r="3"/>
    <circle cx="980" cy="320" r="2.5"/>
    <circle cx="1180" cy="200" r="3"/>
    <circle cx="900" cy="560" r="3"/>
    <circle cx="1100" cy="640" r="2.5"/>
    <circle cx="1260" cy="460" r="2.5"/>
    <circle cx="720" cy="640" r="2"/>
    <circle cx="1080" cy="120" r="2"/>
    <circle cx="850" cy="420" r="2"/>
  </g>
</svg>
