<svg xmlns="http://www.w3.org/2000/svg" viewBox="0 0 1400 800" preserveAspectRatio="xMidYMid slice">
  <defs>
    <radialGradient id="en-bg" cx="30%" cy="50%" r="55%">
      <stop offset="0%" stop-color="#7940C9" stop-opacity="0.50"/>
      <stop offset="60%" stop-color="#7940C9" stop-opacity="0.10"/>
      <stop offset="100%" stop-color="#7940C9" stop-opacity="0"/>
    </radialGradient>
    <radialGradient id="en-bg2" cx="75%" cy="50%" r="55%">
      <stop offset="0%" stop-color="#008EE6" stop-opacity="0.50"/>
      <stop offset="60%" stop-color="#008EE6" stop-opacity="0.10"/>
      <stop offset="100%" stop-color="#008EE6" stop-opacity="0"/>
    </radialGradient>
    <linearGradient id="en-loop" x1="0" y1="0" x2="1" y2="0">
      <stop offset="0%" stop-color="#7940C9" stop-opacity="0.65"/>
      <stop offset="50%" stop-color="#5667D5" stop-opacity="0.45"/>
      <stop offset="100%" stop-color="#008EE6" stop-opacity="0.65"/>
    </linearGradient>
    <linearGradient id="en-loop-soft" x1="0" y1="0" x2="1" y2="0">
      <stop offset="0%" stop-color="#7940C9" stop-opacity="0.22"/>
      <stop offset="100%" stop-color="#008EE6" stop-opacity="0.22"/>
    </linearGradient>
    <radialGradient id="en-pulse" cx="50%" cy="50%" r="50%">
      <stop offset="0%" stop-color="#7940C9" stop-opacity="0.55"/>
      <stop offset="100%" stop-color="#008EE6" stop-opacity="0"/>
    </radialGradient>
    <filter id="en-blur" x="-20%" y="-20%" width="140%" height="140%">
      <feGaussianBlur stdDeviation="50"/>
    </filter>
  </defs>
  <g filter="url(#en-blur)">
    <circle cx="380" cy="400" r="340" fill="url(#en-bg)"/>
    <circle cx="1020" cy="400" r="340" fill="url(#en-bg2)"/>
  </g>
  <g fill="none" stroke="url(#en-loop)" stroke-width="1.3" stroke-linecap="round">
    <path d="M 200 400 C 200 220, 460 220, 700 400 S 1200 580, 1200 400 S 940 220, 700 400 S 200 580, 200 400 Z"/>
  </g>
  <g fill="none" stroke="url(#en-loop-soft)" stroke-width="0.8">
    <path d="M 180 400 C 180 200, 460 200, 700 400 S 1220 600, 1220 400 S 940 200, 700 400 S 180 600, 180 400 Z"/>
    <path d="M 220 400 C 220 240, 460 240, 700 400 S 1180 560, 1180 400 S 940 240, 700 400 S 220 560, 220 400 Z"/>
    <path d="M 260 400 C 260 280, 460 280, 700 400 S 1140 520, 1140 400 S 940 280, 700 400 S 260 520, 260 400 Z"/>
  </g>
  <g>
    <circle cx="200" cy="400" r="38" fill="url(#en-pulse)"/>
    <circle cx="200" cy="400" r="6" fill="#7940C9" opacity="0.85"/>
    <circle cx="700" cy="400" r="44" fill="url(#en-pulse)"/>
    <circle cx="700" cy="400" r="7" fill="#5667D5" opacity="0.85"/>
    <circle cx="1200" cy="400" r="38" fill="url(#en-pulse)"/>
    <circle cx="1200" cy="400" r="6" fill="#008EE6" opacity="0.85"/>
  </g>
  <g fill="#7940C9" opacity="0.5">
    <circle cx="450" cy="280" r="3"/>
    <circle cx="950" cy="520" r="3"/>
    <circle cx="450" cy="520" r="2.5"/>
    <circle cx="950" cy="280" r="2.5"/>
  </g>
</svg>
