<svg xmlns="http://www.w3.org/2000/svg" viewBox="0 0 1400 800" preserveAspectRatio="xMidYMid slice">
  <defs>
    <radialGradient id="ac-bg" cx="50%" cy="20%" r="60%">
      <stop offset="0%" stop-color="#008EE6" stop-opacity="0.45"/>
      <stop offset="60%" stop-color="#008EE6" stop-opacity="0.10"/>
      <stop offset="100%" stop-color="#008EE6" stop-opacity="0"/>
    </radialGradient>
    <radialGradient id="ac-bg2" cx="50%" cy="95%" r="55%">
      <stop offset="0%" stop-color="#28538F" stop-opacity="0.55"/>
      <stop offset="60%" stop-color="#28538F" stop-opacity="0.12"/>
      <stop offset="100%" stop-color="#28538F" stop-opacity="0"/>
    </radialGradient>
    <linearGradient id="ac-line" x1="0" y1="0" x2="0" y2="1">
      <stop offset="0%" stop-color="#008EE6" stop-opacity="0.50"/>
      <stop offset="100%" stop-color="#28538F" stop-opacity="0.75"/>
    </linearGradient>
    <linearGradient id="ac-line-soft" x1="0" y1="0" x2="0" y2="1">
      <stop offset="0%" stop-color="#008EE6" stop-opacity="0.18"/>
      <stop offset="100%" stop-color="#28538F" stop-opacity="0.30"/>
    </linearGradient>
    <radialGradient id="ac-node" cx="50%" cy="50%" r="50%">
      <stop offset="0%" stop-color="#28538F" stop-opacity="0.75"/>
      <stop offset="100%" stop-color="#28538F" stop-opacity="0"/>
    </radialGradient>
    <filter id="ac-blur" x="-20%" y="-20%" width="140%" height="140%">
      <feGaussianBlur stdDeviation="50"/>
    </filter>
  </defs>
  <g filter="url(#ac-blur)">
    <circle cx="700" cy="120" r="500" fill="url(#ac-bg)"/>
    <circle cx="700" cy="800" r="420" fill="url(#ac-bg2)"/>
  </g>
  <g stroke="url(#ac-line)" stroke-width="1.2" fill="none" stroke-linecap="round">
    <line x1="120" y1="80" x2="650" y2="720"/>
    <line x1="1280" y1="80" x2="750" y2="720"/>
  </g>
  <g stroke="url(#ac-line-soft)" stroke-width="0.7" fill="none">
    <line x1="220" y1="80" x2="660" y2="720"/>
    <line x1="320" y1="80" x2="670" y2="720"/>
    <line x1="420" y1="80" x2="680" y2="720"/>
    <line x1="520" y1="80" x2="690" y2="720"/>
    <line x1="700" y1="80" x2="700" y2="720"/>
    <line x1="880" y1="80" x2="720" y2="720"/>
    <line x1="980" y1="80" x2="730" y2="720"/>
    <line x1="1080" y1="80" x2="740" y2="720"/>
    <line x1="1180" y1="80" x2="750" y2="720"/>
  </g>
  <g stroke="url(#ac-line-soft)" stroke-width="0.6" fill="none">
    <path d="M 100 200 Q 700 240 1300 200"/>
    <path d="M 180 360 Q 700 400 1220 360"/>
    <path d="M 280 520 Q 700 560 1120 520"/>
  </g>
  <g>
    <circle cx="640" cy="720" r="46" fill="url(#ac-node)"/>
    <circle cx="700" cy="700" r="52" fill="url(#ac-node)"/>
    <circle cx="760" cy="720" r="42" fill="url(#ac-node)"/>
    <circle cx="600" cy="740" r="32" fill="url(#ac-node)"/>
    <circle cx="800" cy="740" r="36" fill="url(#ac-node)"/>
    <circle cx="700" cy="760" r="28" fill="url(#ac-node)"/>
  </g>
  <g fill="#28538F" opacity="0.75">
    <circle cx="640" cy="720" r="4"/>
    <circle cx="700" cy="700" r="5"/>
    <circle cx="760" cy="720" r="4"/>
    <circle cx="600" cy="740" r="3"/>
    <circle cx="800" cy="740" r="3"/>
    <circle cx="700" cy="760" r="3"/>
  </g>
</svg>
