<svg xmlns="http://www.w3.org/2000/svg" viewBox="0 0 1400 800" preserveAspectRatio="xMidYMid slice">
  <defs>
    <radialGradient id="ds-bg" cx="20%" cy="30%" r="55%">
      <stop offset="0%" stop-color="#FF7058" stop-opacity="0.45"/>
      <stop offset="60%" stop-color="#FF7058" stop-opacity="0.10"/>
      <stop offset="100%" stop-color="#FF7058" stop-opacity="0"/>
    </radialGradient>
    <radialGradient id="ds-bg2" cx="80%" cy="70%" r="55%">
      <stop offset="0%" stop-color="#008CE2" stop-opacity="0.50"/>
      <stop offset="60%" stop-color="#008CE2" stop-opacity="0.12"/>
      <stop offset="100%" stop-color="#008CE2" stop-opacity="0"/>
    </radialGradient>
    <linearGradient id="ds-bar" x1="0" y1="0" x2="1" y2="0">
      <stop offset="0%" stop-color="#FF7058" stop-opacity="0.55"/>
      <stop offset="100%" stop-color="#008CE2" stop-opacity="0.55"/>
    </linearGradient>
    <linearGradient id="ds-bar-soft" x1="0" y1="0" x2="1" y2="0">
      <stop offset="0%" stop-color="#FF7058" stop-opacity="0.22"/>
      <stop offset="100%" stop-color="#008CE2" stop-opacity="0.22"/>
    </linearGradient>
    <linearGradient id="ds-sweep" x1="0" y1="0" x2="1" y2="1">
      <stop offset="0%" stop-color="#FF7058" stop-opacity="0.18"/>
      <stop offset="100%" stop-color="#008CE2" stop-opacity="0.18"/>
    </linearGradient>
    <filter id="ds-blur" x="-20%" y="-20%" width="140%" height="140%">
      <feGaussianBlur stdDeviation="50"/>
    </filter>
  </defs>
  <g filter="url(#ds-blur)">
    <circle cx="300" cy="240" r="360" fill="url(#ds-bg)"/>
    <circle cx="1100" cy="560" r="380" fill="url(#ds-bg2)"/>
  </g>
  <path d="M 0 760 L 1400 0 L 1400 120 L 0 800 Z" fill="url(#ds-sweep)" opacity="0.65"/>
  <g transform="translate(820 220)">
    <circle cx="0" cy="0" r="130" fill="none" stroke="url(#ds-bar)" stroke-width="1.4"/>
    <circle cx="0" cy="0" r="110" fill="none" stroke="url(#ds-bar-soft)" stroke-width="0.9"/>
    <line x1="92" y1="92" x2="200" y2="200" stroke="url(#ds-bar)" stroke-width="1.4" stroke-linecap="round"/>
    <line x1="80" y1="80" x2="180" y2="180" stroke="url(#ds-bar-soft)" stroke-width="0.7"/>
  </g>
  <g>
    <rect x="120" y="380" width="520" height="14" rx="2" fill="url(#ds-bar)" opacity="0.55"/>
    <rect x="120" y="404" width="360" height="6" rx="2" fill="url(#ds-bar-soft)"/>
    <rect x="120" y="414" width="420" height="6" rx="2" fill="url(#ds-bar-soft)"/>
    <rect x="120" y="450" width="480" height="14" rx="2" fill="url(#ds-bar)" opacity="0.45"/>
    <rect x="120" y="474" width="340" height="6" rx="2" fill="url(#ds-bar-soft)"/>
    <rect x="120" y="484" width="400" height="6" rx="2" fill="url(#ds-bar-soft)"/>
    <rect x="120" y="520" width="460" height="14" rx="2" fill="url(#ds-bar)" opacity="0.35"/>
    <rect x="120" y="544" width="300" height="6" rx="2" fill="url(#ds-bar-soft)"/>
    <rect x="120" y="554" width="380" height="6" rx="2" fill="url(#ds-bar-soft)"/>
  </g>
  <g fill="#008CE2" opacity="0.45">
    <circle cx="1180" cy="180" r="3"/>
    <circle cx="1240" cy="240" r="2.5"/>
    <circle cx="1300" cy="320" r="2"/>
    <circle cx="1100" cy="120" r="2.5"/>
  </g>
</svg>
