<svg xmlns="http://www.w3.org/2000/svg" viewBox="0 0 1400 800" preserveAspectRatio="xMidYMid slice">
  <defs>
    <radialGradient id="gc-a" cx="20%" cy="50%" r="55%">
      <stop offset="0%" stop-color="#008EE6" stop-opacity="0.55"/>
      <stop offset="60%" stop-color="#008EE6" stop-opacity="0.12"/>
      <stop offset="100%" stop-color="#008EE6" stop-opacity="0"/>
    </radialGradient>
    <radialGradient id="gc-b" cx="80%" cy="50%" r="55%">
      <stop offset="0%" stop-color="#006BB0" stop-opacity="0.5"/>
      <stop offset="65%" stop-color="#006BB0" stop-opacity="0.06"/>
      <stop offset="100%" stop-color="#006BB0" stop-opacity="0"/>
    </radialGradient>
    <linearGradient id="gc-arc" x1="0" y1="0" x2="1" y2="0">
      <stop offset="0%" stop-color="#008EE6" stop-opacity="0"/>
      <stop offset="50%" stop-color="#008EE6" stop-opacity="0.55"/>
      <stop offset="100%" stop-color="#008EE6" stop-opacity="0"/>
    </linearGradient>
    <linearGradient id="gc-arc2" x1="1" y1="0" x2="0" y2="1">
      <stop offset="0%" stop-color="#006BB0" stop-opacity="0"/>
      <stop offset="50%" stop-color="#006BB0" stop-opacity="0.5"/>
      <stop offset="100%" stop-color="#006BB0" stop-opacity="0"/>
    </linearGradient>
    <filter id="gc-blur" x="-20%" y="-20%" width="140%" height="140%">
      <feGaussianBlur stdDeviation="32"/>
    </filter>
  </defs>
  <g filter="url(#gc-blur)">
    <ellipse cx="260" cy="400" rx="500" ry="320" fill="url(#gc-a)"/>
    <ellipse cx="1140" cy="400" rx="500" ry="320" fill="url(#gc-b)"/>
  </g>
  <g fill="none" stroke="url(#gc-arc)" stroke-width="1.5" opacity="0.7">
    <path d="M -100 600 Q 350 200 700 400 T 1500 200"/>
    <path d="M -100 700 Q 350 300 700 500 T 1500 300"/>
    <path d="M -100 500 Q 350 100 700 300 T 1500 100"/>
  </g>
  <g fill="none" stroke="url(#gc-arc2)" stroke-width="1" opacity="0.5">
    <circle cx="700" cy="400" r="120"/>
    <circle cx="700" cy="400" r="200"/>
    <circle cx="700" cy="400" r="290"/>
    <circle cx="700" cy="400" r="390"/>
    <circle cx="700" cy="400" r="500"/>
  </g>
  <g fill="#008EE6" opacity="0.5">
    <circle cx="180" cy="220" r="2"/>
    <circle cx="320" cy="540" r="2"/>
    <circle cx="540" cy="160" r="2"/>
    <circle cx="860" cy="660" r="2"/>
    <circle cx="1120" cy="280" r="2"/>
    <circle cx="1260" cy="540" r="2"/>
  </g>
</svg>
