<svg xmlns="http://www.w3.org/2000/svg" viewBox="0 0 1400 800" preserveAspectRatio="xMidYMid slice">
  <defs>
    <radialGradient id="gs-a" cx="50%" cy="50%" r="50%">
      <stop offset="0%" stop-color="#7940C9" stop-opacity="0.55"/>
      <stop offset="65%" stop-color="#7940C9" stop-opacity="0.12"/>
      <stop offset="100%" stop-color="#7940C9" stop-opacity="0"/>
    </radialGradient>
    <radialGradient id="gs-b" cx="50%" cy="50%" r="50%">
      <stop offset="0%" stop-color="#5A2A9A" stop-opacity="0.5"/>
      <stop offset="65%" stop-color="#5A2A9A" stop-opacity="0.08"/>
      <stop offset="100%" stop-color="#5A2A9A" stop-opacity="0"/>
    </radialGradient>
    <linearGradient id="gs-ribbon" x1="0" y1="0" x2="1" y2="1">
      <stop offset="0%" stop-color="#7940C9" stop-opacity="0"/>
      <stop offset="35%" stop-color="#7940C9" stop-opacity="0.55"/>
      <stop offset="65%" stop-color="#5A2A9A" stop-opacity="0.55"/>
      <stop offset="100%" stop-color="#5A2A9A" stop-opacity="0"/>
    </linearGradient>
    <linearGradient id="gs-ribbon2" x1="1" y1="0" x2="0" y2="1">
      <stop offset="0%" stop-color="#7940C9" stop-opacity="0"/>
      <stop offset="50%" stop-color="#7940C9" stop-opacity="0.4"/>
      <stop offset="100%" stop-color="#7940C9" stop-opacity="0"/>
    </linearGradient>
    <filter id="gs-blur" x="-20%" y="-20%" width="140%" height="140%">
      <feGaussianBlur stdDeviation="34"/>
    </filter>
  </defs>
  <g filter="url(#gs-blur)">
    <circle cx="300" cy="280" r="340" fill="url(#gs-a)"/>
    <circle cx="1080" cy="540" r="360" fill="url(#gs-b)"/>
    <circle cx="700" cy="180" r="200" fill="url(#gs-a)"/>
  </g>
  <g fill="none" stroke="url(#gs-ribbon)" stroke-width="2.5" opacity="0.85">
    <path d="M -100 200 C 250 600, 550 100, 800 450 S 1200 250, 1500 600"/>
    <path d="M -100 350 C 300 700, 600 200, 850 550 S 1250 350, 1500 700"/>
    <path d="M -100 500 C 250 800, 600 350, 900 650 S 1300 450, 1500 800"/>
  </g>
  <g fill="none" stroke="url(#gs-ribbon2)" stroke-width="1" opacity="0.5">
    <path d="M -100 100 C 350 400, 700 50, 1000 350 S 1300 150, 1500 400"/>
    <path d="M -100 650 C 300 350, 700 750, 1050 450 S 1300 700, 1500 450"/>
  </g>
  <g fill="#7940C9" opacity="0.55">
    <circle cx="160" cy="220" r="2.5"/>
    <circle cx="280" cy="540" r="2"/>
    <circle cx="460" cy="160" r="2"/>
    <circle cx="620" cy="620" r="3"/>
    <circle cx="820" cy="220" r="2"/>
    <circle cx="980" cy="500" r="2.5"/>
    <circle cx="1180" cy="180" r="2"/>
    <circle cx="1280" cy="540" r="2"/>
    <circle cx="380" cy="380" r="1.8"/>
    <circle cx="900" cy="380" r="1.8"/>
  </g>
</svg>
