<svg xmlns="http://www.w3.org/2000/svg" viewBox="0 0 1400 800" preserveAspectRatio="xMidYMid slice">
  <defs>
    <radialGradient id="alt-a" cx="50%" cy="50%" r="50%">
      <stop offset="0%" stop-color="#008CE2" stop-opacity="0.5"/>
      <stop offset="65%" stop-color="#008CE2" stop-opacity="0.1"/>
      <stop offset="100%" stop-color="#008CE2" stop-opacity="0"/>
    </radialGradient>
    <radialGradient id="alt-b" cx="50%" cy="50%" r="50%">
      <stop offset="0%" stop-color="#006FB5" stop-opacity="0.45"/>
      <stop offset="65%" stop-color="#006FB5" stop-opacity="0.06"/>
      <stop offset="100%" stop-color="#006FB5" stop-opacity="0"/>
    </radialGradient>
    <linearGradient id="alt-link" x1="0" y1="0" x2="1" y2="1">
      <stop offset="0%" stop-color="#008CE2" stop-opacity="0.05"/>
      <stop offset="50%" stop-color="#008CE2" stop-opacity="0.5"/>
      <stop offset="100%" stop-color="#008CE2" stop-opacity="0.05"/>
    </linearGradient>
    <filter id="alt-blur" x="-20%" y="-20%" width="140%" height="140%">
      <feGaussianBlur stdDeviation="34"/>
    </filter>
  </defs>
  <g filter="url(#alt-blur)">
    <circle cx="280" cy="220" r="320" fill="url(#alt-a)"/>
    <circle cx="1120" cy="580" r="360" fill="url(#alt-b)"/>
    <circle cx="900" cy="200" r="240" fill="url(#alt-a)"/>
  </g>
  <g fill="#008CE2" opacity="0.4">
    <circle cx="80"  cy="100" r="2"/><circle cx="180" cy="100" r="2"/><circle cx="280" cy="100" r="2"/><circle cx="380" cy="100" r="2"/><circle cx="480" cy="100" r="2"/><circle cx="580" cy="100" r="2"/><circle cx="680" cy="100" r="2"/><circle cx="780" cy="100" r="2"/><circle cx="880" cy="100" r="2"/><circle cx="980" cy="100" r="2"/><circle cx="1080" cy="100" r="2"/><circle cx="1180" cy="100" r="2"/><circle cx="1280" cy="100" r="2"/>
    <circle cx="80"  cy="200" r="2"/><circle cx="180" cy="200" r="2"/><circle cx="280" cy="200" r="2"/><circle cx="380" cy="200" r="2"/><circle cx="480" cy="200" r="2"/><circle cx="580" cy="200" r="2"/><circle cx="680" cy="200" r="2"/><circle cx="780" cy="200" r="2"/><circle cx="880" cy="200" r="2"/><circle cx="980" cy="200" r="2"/><circle cx="1080" cy="200" r="2"/><circle cx="1180" cy="200" r="2"/><circle cx="1280" cy="200" r="2"/>
    <circle cx="80"  cy="300" r="2"/><circle cx="180" cy="300" r="2"/><circle cx="280" cy="300" r="2"/><circle cx="380" cy="300" r="2"/><circle cx="480" cy="300" r="2"/><circle cx="580" cy="300" r="2"/><circle cx="680" cy="300" r="2"/><circle cx="780" cy="300" r="2"/><circle cx="880" cy="300" r="2"/><circle cx="980" cy="300" r="2"/><circle cx="1080" cy="300" r="2"/><circle cx="1180" cy="300" r="2"/><circle cx="1280" cy="300" r="2"/>
    <circle cx="80"  cy="400" r="2"/><circle cx="180" cy="400" r="2"/><circle cx="280" cy="400" r="2"/><circle cx="380" cy="400" r="2"/><circle cx="480" cy="400" r="2"/><circle cx="580" cy="400" r="2"/><circle cx="680" cy="400" r="2"/><circle cx="780" cy="400" r="2"/><circle cx="880" cy="400" r="2"/><circle cx="980" cy="400" r="2"/><circle cx="1080" cy="400" r="2"/><circle cx="1180" cy="400" r="2"/><circle cx="1280" cy="400" r="2"/>
    <circle cx="80"  cy="500" r="2"/><circle cx="180" cy="500" r="2"/><circle cx="280" cy="500" r="2"/><circle cx="380" cy="500" r="2"/><circle cx="480" cy="500" r="2"/><circle cx="580" cy="500" r="2"/><circle cx="680" cy="500" r="2"/><circle cx="780" cy="500" r="2"/><circle cx="880" cy="500" r="2"/><circle cx="980" cy="500" r="2"/><circle cx="1080" cy="500" r="2"/><circle cx="1180" cy="500" r="2"/><circle cx="1280" cy="500" r="2"/>
    <circle cx="80"  cy="600" r="2"/><circle cx="180" cy="600" r="2"/><circle cx="280" cy="600" r="2"/><circle cx="380" cy="600" r="2"/><circle cx="480" cy="600" r="2"/><circle cx="580" cy="600" r="2"/><circle cx="680" cy="600" r="2"/><circle cx="780" cy="600" r="2"/><circle cx="880" cy="600" r="2"/><circle cx="980" cy="600" r="2"/><circle cx="1080" cy="600" r="2"/><circle cx="1180" cy="600" r="2"/><circle cx="1280" cy="600" r="2"/>
    <circle cx="80"  cy="700" r="2"/><circle cx="180" cy="700" r="2"/><circle cx="280" cy="700" r="2"/><circle cx="380" cy="700" r="2"/><circle cx="480" cy="700" r="2"/><circle cx="580" cy="700" r="2"/><circle cx="680" cy="700" r="2"/><circle cx="780" cy="700" r="2"/><circle cx="880" cy="700" r="2"/><circle cx="980" cy="700" r="2"/><circle cx="1080" cy="700" r="2"/><circle cx="1180" cy="700" r="2"/><circle cx="1280" cy="700" r="2"/>
  </g>
  <g stroke="url(#alt-link)" stroke-width="1" fill="none" opacity="0.85">
    <line x1="280" y1="200" x2="580" y2="400"/>
    <line x1="580" y1="400" x2="880" y2="300"/>
    <line x1="880" y1="300" x2="1080" y2="500"/>
    <line x1="380" y1="500" x2="680" y2="600"/>
    <line x1="680" y1="600" x2="980" y2="500"/>
    <line x1="180" y1="300" x2="380" y2="500"/>
    <line x1="980" y1="200" x2="1180" y2="400"/>
    <line x1="480" y1="200" x2="780" y2="300"/>
    <line x1="780" y1="300" x2="980" y2="500"/>
    <line x1="380" y1="500" x2="580" y2="700"/>
  </g>
  <g fill="#008CE2" opacity="0.95">
    <circle cx="280" cy="200" r="5"/>
    <circle cx="580" cy="400" r="6"/>
    <circle cx="880" cy="300" r="5"/>
    <circle cx="1080" cy="500" r="5"/>
    <circle cx="380" cy="500" r="4"/>
    <circle cx="680" cy="600" r="5"/>
    <circle cx="980" cy="500" r="5"/>
    <circle cx="780" cy="300" r="4"/>
    <circle cx="480" cy="200" r="4"/>
    <circle cx="1180" cy="400" r="4"/>
  </g>
</svg>
