<svg xmlns="http://www.w3.org/2000/svg" viewBox="0 0 1400 800" preserveAspectRatio="xMidYMid slice">
  <defs>
    <radialGradient id="rd-a" cx="50%" cy="50%" r="50%">
      <stop offset="0%" stop-color="#FF7058" stop-opacity="0.55"/>
      <stop offset="65%" stop-color="#FF7058" stop-opacity="0.12"/>
      <stop offset="100%" stop-color="#FF7058" stop-opacity="0"/>
    </radialGradient>
    <radialGradient id="rd-b" cx="50%" cy="50%" r="50%">
      <stop offset="0%" stop-color="#D8523D" stop-opacity="0.45"/>
      <stop offset="65%" stop-color="#D8523D" stop-opacity="0.08"/>
      <stop offset="100%" stop-color="#D8523D" stop-opacity="0"/>
    </radialGradient>
    <linearGradient id="rd-line" x1="0" y1="1" x2="1" y2="0">
      <stop offset="0%" stop-color="#FF7058" stop-opacity="0"/>
      <stop offset="50%" stop-color="#FF7058" stop-opacity="0.7"/>
      <stop offset="100%" stop-color="#D8523D" stop-opacity="0.9"/>
    </linearGradient>
    <linearGradient id="rd-grid" x1="0" y1="0" x2="0" y2="1">
      <stop offset="0%" stop-color="#FF7058" stop-opacity="0.0"/>
      <stop offset="100%" stop-color="#FF7058" stop-opacity="0.25"/>
    </linearGradient>
    <filter id="rd-blur" x="-20%" y="-20%" width="140%" height="140%">
      <feGaussianBlur stdDeviation="32"/>
    </filter>
  </defs>
  <g filter="url(#rd-blur)">
    <ellipse cx="1100" cy="240" rx="420" ry="280" fill="url(#rd-a)"/>
    <ellipse cx="280" cy="560" rx="360" ry="260" fill="url(#rd-b)"/>
  </g>
  <g stroke="url(#rd-grid)" stroke-width="1" opacity="0.55">
    <line x1="0" y1="700" x2="1400" y2="700"/>
    <line x1="0" y1="600" x2="1400" y2="600"/>
    <line x1="0" y1="500" x2="1400" y2="500"/>
    <line x1="0" y1="400" x2="1400" y2="400"/>
    <line x1="0" y1="300" x2="1400" y2="300"/>
    <line x1="0" y1="200" x2="1400" y2="200"/>
    <line x1="100" y1="0" x2="100" y2="800"/>
    <line x1="280" y1="0" x2="280" y2="800"/>
    <line x1="460" y1="0" x2="460" y2="800"/>
    <line x1="640" y1="0" x2="640" y2="800"/>
    <line x1="820" y1="0" x2="820" y2="800"/>
    <line x1="1000" y1="0" x2="1000" y2="800"/>
    <line x1="1180" y1="0" x2="1180" y2="800"/>
    <line x1="1360" y1="0" x2="1360" y2="800"/>
  </g>
  <g fill="none" stroke="url(#rd-line)" stroke-width="2.5" stroke-linecap="round" opacity="0.9">
    <path d="M 100 720 L 320 600 L 540 580 L 760 420 L 980 320 L 1200 220 L 1380 120"/>
  </g>
  <g fill="none" stroke="url(#rd-line)" stroke-width="1.5" stroke-linecap="round" opacity="0.6">
    <path d="M 100 760 L 320 700 L 540 720 L 760 580 L 980 540 L 1200 440 L 1380 380"/>
    <path d="M 100 680 L 320 540 L 540 460 L 760 320 L 980 220 L 1200 140 L 1380 60"/>
  </g>
  <g fill="#FF7058" opacity="0.95">
    <circle cx="320" cy="600" r="4"/>
    <circle cx="540" cy="580" r="4"/>
    <circle cx="760" cy="420" r="4.5"/>
    <circle cx="980" cy="320" r="4.5"/>
    <circle cx="1200" cy="220" r="5"/>
    <circle cx="1380" cy="120" r="5.5"/>
  </g>
</svg>
