<svg width="89" height="15.5" viewBox="0 3.5 89 15.5" fill="none" xmlns="http://www.w3.org/2000/svg">
<path d="M14.5547 15.429V4.9092H17.7213V7.48023H17.5073C17.6785 6.62322 18.0494 5.96618 18.6199 5.5091C19.2048 5.03776 19.975 4.76637 20.9306 4.69495L21.872 4.63068L22.0647 7.35167L20.2461 7.5445C19.4329 7.61592 18.8268 7.85159 18.4273 8.25153C18.0422 8.65147 17.8497 9.22994 17.8497 9.98697V15.429H14.5547ZM25.715 15.6646C24.9448 15.6646 24.2529 15.5147 23.6396 15.2147C23.0263 14.9147 22.5484 14.5076 22.2061 13.9935C21.8637 13.4793 21.6927 12.9008 21.6927 12.258C21.6927 11.4867 21.8923 10.8797 22.2917 10.4369C22.691 9.97982 23.3401 9.65845 24.2388 9.47277C25.1373 9.2728 26.3284 9.17281 27.8118 9.17281H28.9458V10.844H27.8333C27.2769 10.844 26.8062 10.8654 26.4211 10.9082C26.0503 10.9511 25.7436 11.0297 25.501 11.1439C25.2586 11.2439 25.0802 11.3725 24.9662 11.5296C24.8664 11.6867 24.8165 11.8867 24.8165 12.1295C24.8165 12.5294 24.9519 12.8579 25.223 13.1151C25.5082 13.3721 25.9147 13.5008 26.4425 13.5008C26.8561 13.5008 27.2198 13.4078 27.5336 13.2222C27.8618 13.0222 28.1185 12.758 28.304 12.4294C28.4894 12.0866 28.5821 11.701 28.5821 11.2725V8.80859C28.5821 8.18011 28.4395 7.73732 28.1541 7.48023C27.8689 7.20884 27.3839 7.07315 26.6992 7.07315C26.1286 7.07315 25.5225 7.16599 24.8805 7.35167C24.2529 7.52307 23.6253 7.78732 22.9977 8.1444L22.1205 5.98046C22.4913 5.72336 22.9407 5.50197 23.4684 5.31628C24.0105 5.11632 24.5739 4.96633 25.1587 4.86636C25.7436 4.75209 26.2998 4.69495 26.8276 4.69495C27.926 4.69495 28.8246 4.85921 29.5235 5.18773C30.2368 5.50197 30.7716 5.99474 31.1282 6.66607C31.4849 7.32311 31.6631 8.17297 31.6631 9.21566V15.429H28.6463V13.3078H28.796C28.7105 13.7935 28.525 14.2149 28.2398 14.572C27.9687 14.9147 27.6193 15.1861 27.1914 15.3861C26.7634 15.5718 26.2714 15.6646 25.715 15.6646ZM39.3675 15.6646C38.5259 15.6646 37.7771 15.4575 37.1209 15.0433C36.4791 14.6148 36.0511 14.0506 35.8372 13.3507H36.0511V15.429H32.8845V0.324219H36.1153V6.8589H35.8586C36.0867 6.21614 36.5218 5.6948 37.1638 5.29486C37.8056 4.89492 38.5402 4.69495 39.3675 4.69495C40.2946 4.69495 41.1006 4.91634 41.7853 5.35913C42.4699 5.80192 43.0047 6.43039 43.3899 7.24455C43.7751 8.05871 43.9676 9.02997 43.9676 10.1584C43.9676 11.2868 43.7751 12.2652 43.3899 13.0936C43.0047 13.922 42.4628 14.5576 41.7638 15.0005C41.0791 15.4432 40.2804 15.6646 39.3675 15.6646ZM38.4047 13.2435C39.0894 13.2435 39.6456 12.9936 40.0736 12.4937C40.5014 11.9795 40.7154 11.2011 40.7154 10.1584C40.7154 9.11568 40.5014 8.35152 40.0736 7.86588C39.6456 7.36595 39.0894 7.11599 38.4047 7.11599C37.7057 7.11599 37.1423 7.36595 36.7144 7.86588C36.2864 8.35152 36.0726 9.11568 36.0726 10.1584C36.0726 11.2011 36.2864 11.9795 36.7144 12.4937C37.1423 12.9936 37.7057 13.2435 38.4047 13.2435Z" fill="#00123B"/>
<path d="M52.3527 15.6659C50.7267 15.6659 49.3359 15.3445 48.1805 14.7019C47.0252 14.0591 46.1337 13.1592 45.5061 12.0022C44.8927 10.831 44.5859 9.45264 44.5859 7.86718C44.5859 6.28172 44.8927 4.9105 45.5061 3.75354C46.1337 2.59659 47.0252 1.69674 48.1805 1.05398C49.3359 0.411221 50.7267 0.0898438 52.3527 0.0898438C53.3512 0.0898438 54.3069 0.246961 55.2198 0.561197C56.1327 0.875432 56.8815 1.30394 57.4664 1.84671L56.4394 4.48201C55.7975 3.98207 55.1485 3.61785 54.4923 3.38932C53.8505 3.1465 53.173 3.02509 52.4597 3.02509C51.0334 3.02509 49.9492 3.44645 49.2076 4.28918C48.4658 5.11762 48.0949 6.31028 48.0949 7.86718C48.0949 9.42407 48.4658 10.6239 49.2076 11.4666C49.9492 12.3093 51.0334 12.7307 52.4597 12.7307C53.173 12.7307 53.8505 12.6164 54.4923 12.3879C55.1485 12.1451 55.7975 11.7737 56.4394 11.2738L57.4664 13.9091C56.8815 14.4518 56.1327 14.8803 55.2198 15.1946C54.3069 15.5088 53.3512 15.6659 52.3527 15.6659ZM61.3285 15.6659C60.5582 15.6659 59.8665 15.516 59.2532 15.216C58.6397 14.916 58.1618 14.5089 57.8196 13.9948C57.4773 13.4806 57.3061 12.9021 57.3061 12.2593C57.3061 11.488 57.5057 10.881 57.9051 10.4382C58.3046 9.98112 58.9535 9.65975 59.8522 9.47407C60.7508 9.2741 61.9419 9.17411 63.4253 9.17411H64.5593V10.8453H63.4467C62.8904 10.8453 62.4197 10.8667 62.0346 10.9095C61.6637 10.9524 61.357 11.031 61.1146 11.1452C60.872 11.2452 60.6938 11.3738 60.5796 11.5309C60.4798 11.688 60.4299 11.888 60.4299 12.1308C60.4299 12.5307 60.5653 12.8592 60.8364 13.1163C61.1217 13.3734 61.5282 13.5021 62.056 13.5021C62.4696 13.5021 62.8334 13.4091 63.1472 13.2235C63.4752 13.0235 63.732 12.7593 63.9174 12.4307C64.1028 12.0879 64.1956 11.7023 64.1956 11.2738V8.80988C64.1956 8.18141 64.0529 7.73862 63.7677 7.48153C63.4823 7.21014 62.9974 7.07445 62.3127 7.07445C61.7422 7.07445 61.1359 7.16729 60.4941 7.35297C59.8665 7.52437 59.2388 7.78862 58.6112 8.1457L57.734 5.98176C58.1049 5.72466 58.5542 5.50327 59.0819 5.31758C59.6239 5.11762 60.1874 4.96763 60.7722 4.86766C61.357 4.75339 61.9133 4.69625 62.4411 4.69625C63.5394 4.69625 64.4381 4.86051 65.137 5.18903C65.8502 5.50327 66.3851 5.99604 66.7417 6.66737C67.0983 7.32441 67.2765 8.17427 67.2765 9.21696V15.4303H64.2597V13.3091H64.4096C64.3239 13.7948 64.1385 14.2162 63.8532 14.5732C63.5822 14.916 63.2327 15.1874 62.8048 15.3874C62.377 15.5731 61.8848 15.6659 61.3285 15.6659ZM72.5204 15.6659C71.9071 15.6659 71.3151 15.6159 70.7446 15.516C70.174 15.416 69.6534 15.2802 69.1827 15.1089C68.7119 14.9375 68.2983 14.7232 67.9417 14.4661L68.7119 12.3665C69.0685 12.5807 69.4537 12.7735 69.8673 12.9449C70.2953 13.102 70.7374 13.2235 71.1938 13.3091C71.6504 13.3949 72.0996 13.4377 72.5418 13.4377C73.1552 13.4377 73.5973 13.3449 73.8684 13.1592C74.1537 12.9592 74.2963 12.7021 74.2963 12.3879C74.2963 12.1022 74.2036 11.888 74.0181 11.7451C73.8327 11.6023 73.5617 11.5023 73.2051 11.4452L70.9585 11.0381C70.0742 10.881 69.3895 10.5596 68.9045 10.074C68.4337 9.57404 68.1985 8.93843 68.1985 8.16713C68.1985 7.45296 68.3981 6.83877 68.7975 6.32456C69.197 5.79608 69.7461 5.39614 70.445 5.12475C71.1582 4.83909 71.9642 4.69625 72.8627 4.69625C73.3762 4.69625 73.8755 4.7391 74.3605 4.8248C74.8454 4.9105 75.3018 5.03906 75.7298 5.21046C76.172 5.38186 76.5642 5.61039 76.9066 5.89607L76.0935 7.9743C75.8225 7.76005 75.5016 7.57437 75.1308 7.41725C74.7599 7.26013 74.3819 7.13872 73.9968 7.05302C73.6116 6.95304 73.2479 6.90304 72.9055 6.90304C72.2637 6.90304 71.8001 7.01017 71.5148 7.22442C71.2296 7.4244 71.0868 7.68149 71.0868 7.99573C71.0868 8.23854 71.1654 8.44566 71.3223 8.61706C71.4935 8.77418 71.7502 8.8813 72.0925 8.93843L74.3391 9.34551C75.2662 9.50263 75.9724 9.81687 76.4572 10.2882C76.9423 10.7453 77.1847 11.3738 77.1847 12.1736C77.1847 12.9021 76.9922 13.5306 76.607 14.0591C76.222 14.5732 75.6799 14.9731 74.981 15.2589C74.282 15.5303 73.4619 15.6659 72.5204 15.6659ZM77.8401 15.4303V0.32552H81.0709V6.88162H80.7714C81.0994 6.18173 81.5844 5.6461 82.2263 5.27474C82.8824 4.88908 83.6242 4.69625 84.4515 4.69625C85.2931 4.69625 85.9849 4.86051 86.5269 5.18903C87.069 5.50327 87.4755 5.98891 87.7465 6.64595C88.0175 7.2887 88.153 8.10999 88.153 9.10983V15.4303H84.9222V9.25982C84.9222 8.77418 84.858 8.38138 84.7297 8.08143C84.6155 7.76719 84.4372 7.5458 84.1947 7.41725C83.9665 7.27441 83.6741 7.203 83.3175 7.203C82.8611 7.203 82.4616 7.30298 82.1194 7.50294C81.7912 7.68863 81.5345 7.96002 81.3491 8.3171C81.1636 8.67419 81.0709 9.08842 81.0709 9.55976V15.4303H77.8401Z" fill="#008EE6"/>
<path d="M4.27965 16.1914L3.32812 18.4677C7.80695 21.2434 12.2312 19.6243 13.8835 18.4677L12.9319 16.1914C9.05501 17.7472 5.54836 16.8397 4.27965 16.1914Z" fill="#008EE6"/>
<path d="M8.75757 9.45843V8.94715L13.218 5.91791V14.644C9.26802 16.7493 4.43452 15.5913 2.22875 13.5138C0.495661 11.8816 0 9.52312 0 8.12878C0 4.95979 1.76534 1.28112 6.26695 0.306051C9.86823 -0.474006 11.9749 0.424238 12.7766 0.926547L11.9381 3.51937C10.1286 2.45564 3.55274 1.92377 3.55274 8.12878C3.55274 12.5388 7.67921 13.6246 10.0183 12.5831V9.45843H8.75757Z" fill="#00123B"/>
</svg>
