<?xml version="1.0" encoding="UTF-8"?>
<svg id="Layer_1_copy_2" data-name="Layer 1 copy 2" xmlns="http://www.w3.org/2000/svg" viewBox="0 0 1035.78 192">
  <defs>
    <style>
      .cls-1 {
        fill: #172235;
      }

      .cls-2 {
        fill: #7940c9;
      }
    </style>
  </defs>
  <path class="cls-2" d="m32.79,133.66l-7.29,17.42c34.32,21.24,68.22,8.85,80.88,0l-7.29-17.42c-29.71,11.9-56.57,4.96-66.3,0Z"/>
  <path class="cls-1" d="m111.52,128.48V47.99h24.26v19.67h-1.64c1.31-6.56,4.15-11.59,8.53-15.08,4.48-3.61,10.38-5.68,17.71-6.23l7.21-.49,1.48,20.82-13.93,1.48c-6.23.55-10.87,2.35-13.93,5.41-2.95,3.06-4.43,7.49-4.43,13.28v41.64h-25.25Zm85.51,1.8c-5.9,0-11.2-1.15-15.9-3.44-4.7-2.3-8.36-5.41-10.98-9.35s-3.93-8.36-3.93-13.28c0-5.9,1.53-10.55,4.59-13.93,3.06-3.5,8.03-5.96,14.92-7.38,6.89-1.53,16.01-2.3,27.38-2.3h8.69v12.79h-8.52c-4.26,0-7.87.16-10.82.49-2.84.33-5.19.93-7.05,1.8-1.86.76-3.22,1.75-4.1,2.95-.76,1.2-1.15,2.73-1.15,4.59,0,3.06,1.04,5.57,3.12,7.54,2.19,1.97,5.3,2.95,9.34,2.95,3.17,0,5.96-.71,8.36-2.13,2.51-1.53,4.48-3.55,5.9-6.07,1.42-2.62,2.13-5.57,2.13-8.85v-18.85c0-4.81-1.09-8.2-3.28-10.16-2.19-2.08-5.9-3.11-11.15-3.11-4.37,0-9.02.71-13.93,2.13-4.81,1.31-9.62,3.33-14.43,6.07l-6.72-16.56c2.84-1.97,6.29-3.66,10.33-5.08,4.15-1.53,8.47-2.68,12.95-3.44,4.48-.87,8.74-1.31,12.79-1.31,8.42,0,15.3,1.26,20.66,3.77,5.47,2.4,9.56,6.18,12.3,11.31,2.73,5.03,4.1,11.53,4.1,19.51v47.54h-23.12v-16.23h1.15c-.66,3.72-2.08,6.94-4.26,9.67-2.08,2.62-4.75,4.7-8.03,6.23-3.28,1.42-7.05,2.13-11.31,2.13Zm104.61,0c-6.45,0-12.19-1.58-17.21-4.75-4.92-3.28-8.2-7.6-9.84-12.95h1.64v15.9h-24.26V12.91h24.76v50h-1.97c1.75-4.92,5.08-8.91,10-11.97,4.92-3.06,10.55-4.59,16.89-4.59,7.1,0,13.28,1.69,18.52,5.08,5.25,3.39,9.34,8.2,12.29,14.43,2.95,6.23,4.43,13.66,4.43,22.3s-1.48,16.12-4.43,22.46c-2.95,6.34-7.1,11.2-12.46,14.59-5.25,3.39-11.37,5.08-18.36,5.08Zm-7.38-18.53c5.25,0,9.51-1.91,12.79-5.74,3.28-3.93,4.92-9.89,4.92-17.87s-1.64-13.83-4.92-17.54c-3.28-3.83-7.54-5.74-12.79-5.74s-9.67,1.91-12.95,5.74c-3.28,3.72-4.92,9.56-4.92,17.54s1.64,13.93,4.92,17.87c3.28,3.82,7.6,5.74,12.95,5.74Z"/>
  <path class="cls-2" d="m386.36,130.29c-6.01,0-11.86-.55-17.54-1.64-5.57-.98-10.77-2.4-15.57-4.26-4.81-1.97-9.02-4.26-12.62-6.89l7.38-20c3.5,2.4,7.27,4.48,11.31,6.23,4.04,1.75,8.36,3.11,12.95,4.1,4.59.87,9.29,1.31,14.1,1.31,7.98,0,13.66-1.2,17.05-3.61,3.39-2.51,5.08-5.63,5.08-9.34,0-2.08-.55-3.88-1.64-5.41-.98-1.53-2.68-2.84-5.08-3.93-2.3-1.2-5.47-2.19-9.51-2.95l-18.53-3.93c-10.49-2.19-18.31-5.9-23.44-11.15-5.03-5.36-7.54-12.35-7.54-20.98,0-7.43,1.97-13.88,5.9-19.35,4.04-5.46,9.56-9.73,16.56-12.79,7.1-3.06,15.25-4.59,24.43-4.59,5.36,0,10.49.55,15.41,1.64,4.92.98,9.45,2.46,13.61,4.43s7.76,4.32,10.82,7.05l-7.38,18.69c-4.37-3.5-9.29-6.12-14.76-7.87-5.46-1.86-11.42-2.79-17.87-2.79-4.59,0-8.52.6-11.8,1.8-3.17,1.2-5.63,2.9-7.38,5.08-1.64,2.19-2.46,4.7-2.46,7.54,0,3.17,1.15,5.74,3.44,7.71,2.29,1.97,6.28,3.55,11.97,4.75l18.53,3.93c10.71,2.3,18.69,6.01,23.93,11.15,5.25,5.03,7.87,11.69,7.87,20,0,7.21-1.97,13.55-5.9,19.02-3.83,5.36-9.29,9.56-16.39,12.62-6.99,2.95-15.3,4.43-24.92,4.43Zm52.47-1.8V12.91h24.76v50.17h-2.3c2.51-5.36,6.23-9.45,11.15-12.3,5.03-2.95,10.71-4.43,17.05-4.43s11.75,1.26,15.9,3.77c4.15,2.4,7.27,6.12,9.34,11.15,2.08,4.92,3.11,11.2,3.11,18.85v48.36h-24.76v-47.21c0-3.72-.49-6.72-1.48-9.02-.88-2.4-2.24-4.1-4.1-5.08-1.75-1.09-3.99-1.64-6.72-1.64-3.5,0-6.56.76-9.18,2.3-2.51,1.42-4.48,3.5-5.9,6.23-1.42,2.73-2.13,5.9-2.13,9.51v44.92h-24.76Zm115.61,1.8c-5.9,0-11.2-1.15-15.9-3.44-4.7-2.3-8.36-5.41-10.98-9.35s-3.93-8.36-3.93-13.28c0-5.9,1.53-10.55,4.59-13.93,3.06-3.5,8.03-5.96,14.92-7.38,6.89-1.53,16.01-2.3,27.38-2.3h8.69v12.79h-8.52c-4.26,0-7.87.16-10.82.49-2.84.33-5.19.93-7.05,1.8-1.86.76-3.22,1.75-4.1,2.95-.77,1.2-1.15,2.73-1.15,4.59,0,3.06,1.04,5.57,3.11,7.54,2.19,1.97,5.3,2.95,9.35,2.95,3.17,0,5.96-.71,8.36-2.13,2.51-1.53,4.48-3.55,5.9-6.07,1.42-2.62,2.13-5.57,2.13-8.85v-18.85c0-4.81-1.09-8.2-3.28-10.16-2.19-2.08-5.9-3.11-11.15-3.11-4.37,0-9.02.71-13.93,2.13-4.81,1.31-9.62,3.33-14.43,6.07l-6.72-16.56c2.84-1.97,6.28-3.66,10.33-5.08,4.15-1.53,8.47-2.68,12.95-3.44,4.48-.87,8.74-1.31,12.79-1.31,8.42,0,15.3,1.26,20.66,3.77,5.46,2.4,9.56,6.18,12.29,11.31,2.73,5.03,4.1,11.53,4.1,19.51v47.54h-23.12v-16.23h1.15c-.66,3.72-2.08,6.94-4.26,9.67-2.08,2.62-4.75,4.7-8.03,6.23-3.28,1.42-7.05,2.13-11.31,2.13Zm54.93-1.8V47.99h24.26v19.67h-1.64c1.31-6.56,4.15-11.59,8.52-15.08,4.48-3.61,10.38-5.68,17.71-6.23l7.21-.49,1.47,20.82-13.93,1.48c-6.23.55-10.87,2.35-13.93,5.41-2.95,3.06-4.43,7.49-4.43,13.28v41.64h-25.25Zm98.82,1.8c-9.51,0-17.71-1.69-24.59-5.08-6.78-3.5-12.02-8.36-15.74-14.59-3.61-6.34-5.41-13.77-5.41-22.3s1.75-15.57,5.25-21.8c3.5-6.34,8.36-11.26,14.59-14.75,6.34-3.61,13.5-5.41,21.48-5.41s14.65,1.69,20.33,5.08c5.68,3.28,10.06,7.98,13.12,14.1,3.17,6.12,4.76,13.39,4.76,21.8v6.23h-59.18v-12.79h41.31l-2.62,2.3c0-6.67-1.47-11.69-4.43-15.08-2.84-3.5-6.94-5.25-12.3-5.25-4.04,0-7.49.93-10.33,2.79-2.84,1.86-5.03,4.54-6.56,8.03-1.53,3.5-2.3,7.71-2.3,12.62v1.31c0,5.57.82,10.16,2.46,13.77,1.75,3.5,4.32,6.12,7.7,7.87,3.5,1.75,7.82,2.62,12.95,2.62,4.37,0,8.8-.66,13.28-1.97,4.48-1.31,8.53-3.33,12.13-6.07l6.56,16.56c-4.04,3.06-9.02,5.52-14.92,7.38-5.79,1.75-11.64,2.62-17.54,2.62Z"/>
  <path class="cls-1" d="m67.1,82.17v-3.91l34.18-23.18v66.77c-30.27,16.11-67.3,7.25-84.2-8.65C3.8,100.71,0,82.66,0,71.99,0,47.74,13.53,19.6,48.02,12.13c27.59-5.97,43.74.9,49.88,4.75l-6.43,19.84c-13.86-8.14-64.25-12.21-64.25,35.27,0,33.74,31.62,42.05,49.54,34.08v-23.91h-9.66Z"/>
</svg>