<svg width="162" height="36" viewBox="0 0 162 36" fill="none" xmlns="http://www.w3.org/2000/svg">
<path d="M26.1943 27.7306V8.82828H31.8936V13.448H31.5085C31.8166 11.9081 32.4842 10.7275 33.511 9.90621C34.5637 9.05928 35.95 8.57165 37.6699 8.44331L39.3643 8.32783L39.711 13.217L36.4378 13.5635C34.9743 13.6918 33.8833 14.1153 33.1643 14.8339C32.4713 15.5525 32.1248 16.5919 32.1248 17.9522V27.7306H26.1943ZM46.2809 28.154C44.8946 28.154 43.6494 27.8845 42.5456 27.3456C41.4417 26.8065 40.5816 26.0751 39.9656 25.1512C39.3493 24.2273 39.0414 23.1878 39.0414 22.0329C39.0414 20.647 39.4008 19.5562 40.1195 18.7606C40.8383 17.9393 42.0065 17.3619 43.6239 17.0283C45.2411 16.6689 47.385 16.4893 50.0548 16.4893H52.0958V19.4921H50.0935C49.0921 19.4921 48.2449 19.5306 47.5518 19.6076C46.8843 19.6846 46.3324 19.8257 45.8958 20.031C45.4594 20.2107 45.1384 20.4417 44.9332 20.724C44.7535 21.0063 44.6637 21.3656 44.6637 21.8019C44.6637 22.5205 44.9075 23.1108 45.3953 23.5728C45.9087 24.0348 46.6403 24.2659 47.5902 24.2659C48.3347 24.2659 48.9893 24.0989 49.5541 23.7653C50.1447 23.406 50.6068 22.9312 50.9407 22.3409C51.2743 21.7249 51.4411 21.032 51.4411 20.262V15.8348C51.4411 14.7056 51.1845 13.9099 50.6709 13.448C50.1576 12.9604 49.2846 12.7165 48.0523 12.7165C47.0254 12.7165 45.9344 12.8834 44.7791 13.217C43.6494 13.525 42.5198 13.9998 41.3902 14.6414L39.8114 10.7532C40.4789 10.2912 41.2877 9.89339 42.2374 9.55973C43.2131 9.20044 44.2271 8.93094 45.2798 8.7513C46.3324 8.54599 47.3335 8.44331 48.2835 8.44331C50.2603 8.44331 51.8777 8.73846 53.1355 9.32876C54.4193 9.89339 55.3819 10.7788 56.0237 11.9851C56.6657 13.1657 56.9864 14.6927 56.9864 16.5663V27.7306H51.5567V23.9192H51.8262C51.6723 24.7919 51.3384 25.549 50.8251 26.1906C50.3372 26.8065 49.7083 27.2942 48.9381 27.6534C48.1679 27.9872 47.2823 28.154 46.2809 28.154ZM70.8529 28.154C69.3382 28.154 67.9905 27.7818 66.8095 27.0376C65.6543 26.2676 64.8841 25.2539 64.499 23.9962H64.8841V27.7306H59.1848V0.589844H64.9997V12.3316H64.5376C64.9482 11.1766 65.7313 10.2399 66.8867 9.52126C68.0418 8.80262 69.3639 8.44331 70.8529 8.44331C72.5216 8.44331 73.9722 8.84112 75.2045 9.63673C76.4369 10.4323 77.3994 11.5616 78.0927 13.0245C78.7859 14.4874 79.1324 16.2326 79.1324 18.2602C79.1324 20.2877 78.7859 22.0457 78.0927 23.5342C77.3994 25.0228 76.424 26.1649 75.1659 26.9606C73.9336 27.7561 72.4961 28.154 70.8529 28.154ZM69.1201 23.8037C70.3525 23.8037 71.3536 23.3547 72.1238 22.4564C72.8938 21.5324 73.279 20.1337 73.279 18.2602C73.279 16.3866 72.8938 15.0136 72.1238 14.1409C71.3536 13.2427 70.3525 12.7935 69.1201 12.7935C67.8621 12.7935 66.8481 13.2427 66.0778 14.1409C65.3076 15.0136 64.9227 16.3866 64.9227 18.2602C64.9227 20.1337 65.3076 21.5324 66.0778 22.4564C66.8481 23.3547 67.8621 23.8037 69.1201 23.8037Z" fill="#172235"/>
<path d="M94.221 28.1556C91.2945 28.1556 88.7912 27.5781 86.7117 26.4233C84.6324 25.2683 83.0278 23.6514 81.8982 21.5725C80.7944 19.468 80.2422 16.9913 80.2422 14.1425C80.2422 11.2937 80.7944 8.82988 81.8982 6.75102C83.0278 4.67216 84.6324 3.05528 86.7117 1.90035C88.7912 0.745429 91.2945 0.167969 94.221 0.167969C96.0181 0.167969 97.7382 0.450282 99.3812 1.01491C101.024 1.57954 102.372 2.34949 103.425 3.32476L101.576 8.05995C100.421 7.16165 99.253 6.5072 98.0719 6.09657C96.9168 5.66027 95.6973 5.44212 94.4135 5.44212C91.8464 5.44212 89.8951 6.19923 88.5603 7.71347C87.2253 9.20203 86.5577 11.345 86.5577 14.1425C86.5577 16.94 87.2253 19.0959 88.5603 20.6101C89.8951 22.1243 91.8464 22.8814 94.4135 22.8814C95.6973 22.8814 96.9168 22.6761 98.0719 22.2655C99.253 21.8292 100.421 21.1619 101.576 20.2636L103.425 24.9989C102.372 25.974 101.024 26.744 99.3812 27.3086C97.7382 27.8733 96.0181 28.1556 94.221 28.1556ZM110.376 28.1556C108.989 28.1556 107.744 27.8861 106.641 27.3472C105.536 26.8081 104.676 26.0767 104.06 25.1528C103.444 24.2289 103.136 23.1894 103.136 22.0345C103.136 20.6486 103.496 19.5578 104.214 18.7622C104.933 17.9409 106.101 17.3635 107.719 17.0298C109.336 16.6705 111.48 16.4909 114.15 16.4909H116.191V19.4937H114.188C113.187 19.4937 112.34 19.5322 111.647 19.6092C110.979 19.6862 110.427 19.8273 109.991 20.0326C109.554 20.2123 109.233 20.4433 109.028 20.7256C108.848 21.0079 108.758 21.3672 108.758 21.8035C108.758 22.5221 109.002 23.1124 109.49 23.5744C110.004 24.0364 110.735 24.2675 111.685 24.2675C112.43 24.2675 113.084 24.1005 113.649 23.7669C114.239 23.4076 114.702 22.9328 115.035 22.3425C115.369 21.7265 115.536 21.0336 115.536 20.2636V15.8364C115.536 14.7071 115.279 13.9115 114.766 13.4496C114.252 12.962 113.38 12.7181 112.147 12.7181C111.12 12.7181 110.029 12.885 108.874 13.2186C107.744 13.5266 106.615 14.0014 105.485 14.643L103.906 10.7548C104.574 10.2928 105.383 9.89499 106.332 9.56133C107.308 9.20203 108.322 8.93253 109.375 8.7529C110.427 8.54758 111.428 8.4449 112.378 8.4449C114.355 8.4449 115.972 8.74006 117.231 9.33035C118.514 9.89499 119.477 10.7804 120.119 11.9867C120.76 13.1673 121.081 14.6943 121.081 16.5679V27.7322H115.651V23.9208H115.921C115.767 24.7935 115.433 25.5506 114.92 26.1922C114.432 26.8081 113.803 27.2958 113.033 27.655C112.263 27.9888 111.377 28.1556 110.376 28.1556ZM130.519 28.1556C129.415 28.1556 128.35 28.0658 127.323 27.8861C126.296 27.7065 125.359 27.4625 124.512 27.1547C123.665 26.8467 122.92 26.4617 122.278 25.9997L123.665 22.227C124.306 22.612 125 22.9584 125.744 23.2664C126.514 23.5487 127.31 23.7669 128.132 23.9208C128.953 24.075 129.762 24.1519 130.558 24.1519C131.662 24.1519 132.458 23.9851 132.945 23.6514C133.459 23.2921 133.716 22.8301 133.716 22.2655C133.716 21.7522 133.549 21.3672 133.215 21.1106C132.881 20.8539 132.393 20.6743 131.752 20.5716L127.708 19.8402C126.116 19.5578 124.884 18.9804 124.011 18.1078C123.164 17.2095 122.741 16.0674 122.741 14.6815C122.741 13.3982 123.1 12.2947 123.819 11.3707C124.538 10.4211 125.526 9.70249 126.784 9.21485C128.068 8.70156 129.518 8.4449 131.135 8.4449C132.06 8.4449 132.958 8.5219 133.831 8.6759C134.704 8.82987 135.525 9.06087 136.296 9.36885C137.092 9.67683 137.797 10.0875 138.414 10.6008L136.95 14.335C136.462 13.95 135.885 13.6164 135.217 13.3341C134.55 13.0518 133.87 12.8336 133.177 12.6796C132.483 12.5 131.829 12.4101 131.212 12.4101C130.057 12.4101 129.223 12.6026 128.709 12.9876C128.196 13.3469 127.939 13.8089 127.939 14.3735C127.939 14.8098 128.08 15.182 128.363 15.4899C128.671 15.7723 129.133 15.9647 129.749 16.0674L133.793 16.7988C135.461 17.0812 136.732 17.6458 137.605 18.4927C138.478 19.314 138.914 20.4433 138.914 21.8805C138.914 23.1894 138.568 24.3187 137.874 25.2683C137.181 26.1922 136.206 26.9108 134.948 27.4242C133.69 27.9118 132.214 28.1556 130.519 28.1556ZM140.094 27.7322V0.591439H145.909V12.3717H145.37C145.96 11.1141 146.833 10.1516 147.988 9.48435C149.169 8.7914 150.504 8.4449 151.993 8.4449C153.508 8.4449 154.753 8.74006 155.728 9.33035C156.704 9.89499 157.436 10.7676 157.924 11.9482C158.411 13.1031 158.655 14.5788 158.655 16.3754V27.7322H152.84V16.6449C152.84 15.7723 152.725 15.0665 152.494 14.5275C152.288 13.9629 151.967 13.5651 151.531 13.3341C151.12 13.0774 150.594 12.9491 149.952 12.9491C149.131 12.9491 148.412 13.1288 147.796 13.4881C147.205 13.8217 146.743 14.3094 146.409 14.951C146.076 15.5926 145.909 16.3369 145.909 17.1838V27.7322H140.094Z" fill="white"/>
<path d="M7.70329 29.0898L5.99072 33.1801C14.0518 38.1675 22.0147 35.2583 24.9886 33.1801L23.2759 29.0898C16.2981 31.8854 9.98675 30.2547 7.70329 29.0898Z" fill="white"/>
<path d="M15.7621 16.9952V16.0765L23.7901 10.6335V26.3128C16.6808 30.0957 7.98135 28.0149 4.01135 24.2821C0.892102 21.3493 0 17.1114 0 14.606C0 8.91191 3.17729 2.30196 11.2794 0.549921C17.7611 -0.85171 21.5527 0.762284 22.9957 1.66485L21.4864 6.32372C18.2297 4.41238 6.39431 3.45669 6.39431 14.606C6.39431 22.53 13.8212 24.4811 18.0311 22.6097V16.9952H15.7621Z" fill="#172235"/>
</svg>
