<svg xmlns="http://www.w3.org/2000/svg" width="16" height="16" viewBox="0 0 16 16">
  <g fill="none" fill-rule="evenodd" transform="translate(.185 -.565)">
    <polygon fill="#F8B64C" points="9.815 16.565 11.615 16.565 11.615 8.565 9.815 8.565"/>
    <polygon fill="#FFD15C" points="6.815 16.565 8.615 16.565 8.615 9.565 6.815 9.565"/>
    <polygon fill="#FF7058" points="12.815 16.565 14.615 16.565 14.615 5.565 12.815 5.565"/>
    <polygon fill="#54C0EB" points="3.815 16.565 5.615 16.565 5.615 9.565 3.815 9.565"/>
    <polygon fill="#76CEE2" points=".815 16.565 2.615 16.565 2.615 11.565 .815 11.565"/>
    <polygon fill="#52CE9E" points="11.345 .565 11.345 1.687 12.869 1.687 7.609 6.784 5.277 4.523 .815 8.976 .815 10.547 .834 10.565 5.289 6.12 7.609 8.369 13.658 2.507 13.658 3.9 14.815 3.9 14.815 .565"/>
  </g>
</svg>
